<svg xmlns="http://www.w3.org/2000/svg" shape-rendering="geometricPrecision" text-rendering="geometricPrecision" image-rendering="optimizeQuality" fill-rule="evenodd" clip-rule="evenodd" viewBox="0 0 512 398.07"><path d="M259.96 350.95c10.01 0 18.13 8.12 18.13 18.13s-8.12 18.13-18.13 18.13-18.13-8.12-18.13-18.13 8.12-18.13 18.13-18.13zm157.85-224.01c.55-.59 1.31-.98 2.14-.98h21.95c.84 0 1.6.36 2.14.95.53.62.87 1.44.87 2.34 0 .89-.34 1.72-.87 2.3-.54.6-1.32.98-2.14.98h-21.95c-.83 0-1.61-.37-2.15-.98-.52-.57-.86-1.41-.86-2.3 0-.85.32-1.65.81-2.23l.06-.08zm0 22.98c.54-.61 1.32-.99 2.14-.99h47.49c.84 0 1.6.36 2.13.95.54.62.88 1.44.88 2.34 0 .88-.35 1.7-.87 2.29-.54.62-1.32.99-2.14.99h-47.49c-.84 0-1.61-.37-2.15-.98-.52-.58-.86-1.41-.86-2.3 0-.89.35-1.7.87-2.3zM512 182.46v22.15c.01 2.92-2.38 5.31-5.32 5.31h-12.24v-32.76h12.25c2.92 0 5.3 2.4 5.31 5.3zm-43.8-77.53 24.19 22.67H468.2v-22.67zm37.65 27.11c0-1.84-1.37-3.5-2.94-5.08l-35.63-34.7a4.001 4.001 0 0 0-3.11-1.49h-62.18c-2.01 0-3.82.81-5.12 2.12a7.182 7.182 0 0 0-2.12 5.12v71.29h.91l.59-.33a9.576 9.576 0 0 1 4.9-1.21l1.69-.01V98.82h57.27v32.8c0 2.23 1.8 4.06 4.06 4.06h33.6v31.83l8.08.04v-35.51zm-104.93 78.04c-5.8-3.06-11.61-6.13-17.41-9.19-12.08-7.18-13.87-4.97-2.86-12.18l20.28-11.33 87.31-.22v32.76l-87.32.16zm.01-27.11v21.52c-3.81-2.02-7.62-4.03-11.43-6.05-8.96-4.73-10.34-3.28-1.89-8.01l13.32-7.46zM13.6 94.44h103.97c3.75 0 7.15 1.53 9.62 3.99 2.45 2.47 3.99 5.87 3.99 9.61v88.95c0 3.74-1.54 7.15-3.99 9.61a13.56 13.56 0 0 1-9.62 3.99H13.6c-3.75 0-7.15-1.54-9.61-3.99A13.518 13.518 0 0 1 0 196.99v-88.95c0-3.74 1.53-7.14 3.99-9.61a13.57 13.57 0 0 1 9.61-3.99zm44.98 39.04 23 16.04c.36.22.68.53.94.9 1.03 1.49.65 3.52-.83 4.55l-22.91 15.84c-.55.46-1.28.74-2.07.74-1.81 0-3.28-1.47-3.28-3.28v-32.11s.49-1.73.59-1.88c1.04-1.47 3.09-1.84 4.56-.8zM102 185.86v18.17h15.56c1.94 0 3.7-.79 4.97-2.07 1.28-1.28 2.08-3.03 2.08-4.97v-11.13H102zm-6.55 18.17v-18.17h-25.7v18.17h25.7zm-32.26 0v-18.17H36.78v18.17h26.41zm-32.97-18.17H6.55v11.13c0 1.94.8 3.69 2.07 4.97a7.005 7.005 0 0 0 4.98 2.07h16.62v-18.17zm-23.67-6.55h118.07v-54.34H6.55v54.34zm88.9-60.9v-17.42h-25.7v17.42h25.7zm6.55-17.42v17.42h22.61v-10.37c0-1.93-.8-3.7-2.08-4.97a6.99 6.99 0 0 0-4.97-2.08H102zm-38.81 17.42v-17.42H36.78v17.42h26.41zm-32.97 0v-17.42H13.6c-1.95 0-3.7.8-4.98 2.08a7.04 7.04 0 0 0-2.07 4.97v10.37h23.67zM213.4 247.56c23.58 26.5 76.99 21.84 96.73.14-4.59-5.13-9.48-12.3-13.68-18.46-.94-1.39-1.84-2.72-2.71-3.97-8.91 6-19.52 9.68-32.81 9.65-14.81-.04-26.34-5.11-35.91-12.88-2.69 8.02-6.64 19.07-10.43 24.34-.34.47-.74.87-1.19 1.18zm91.79 46.96H118.54c-7.28 0-13.18 6.81-12.08 15.12l11.44 88.43H88.82c0-47.23-16.75-105.17 32.67-132.72 18.39-10.26 65.82-13.75 86.51-27.3 3.16-5.95 6.68-16.6 8.77-22.96.23-.71-.15.47.21-.61-7.6-8.17-13.83-17.82-19.79-27.3l-17.04-27.1c-6.24-9.3-9.48-17.79-9.67-24.76-.1-3.29.46-6.26 1.67-8.87 1.27-2.75 3.22-5.03 5.86-6.8 1.23-.83 2.6-1.54 4.13-2.11-1.11-14.7-1.52-33.23-.81-48.73.37-3.68 1.07-7.36 2.1-11.04 6.25-22.3 25.41-38.35 47.3-45.91C241.34 8.19 237.24-.56 247.97.03c25.44 1.39 64.7 17.77 79.78 35.16 21.14 24.38 15.68 54.37 14.97 84.1 4.73 1.43 7.75 4.44 8.99 9.29 1.37 5.37-.12 12.95-4.67 23.28h-.01c-.08.18-.18.37-.28.54l-19.43 32c-7.49 12.33-15.09 24.68-25.24 34.18l-.49.46c.97 1.4 2.02 2.95 3.12 4.56 3.37 4.94 7.21 10.57 10.78 14.97 21.09 13.12 67.54 16.66 85.7 26.78 45.42 25.33 29.89 87.87 32.54 132.72h-28.96l11.45-88.43c1.08-8.31-4.81-15.12-12.08-15.12h-98.95zM191.96 125.4c-3.78.15-6.63.93-8.59 2.24-1.11.75-1.94 1.71-2.46 2.85-.59 1.26-.86 2.8-.8 4.56.14 5.19 2.86 11.96 8.11 19.78l.08.11 17.05 27.1c6.83 10.88 14 21.95 22.9 30.1 8.56 7.82 18.95 13.12 32.68 13.16 14.88.03 25.76-5.47 34.59-13.74 9.18-8.6 16.43-20.38 23.57-32.14l19.2-31.63c3.57-8.16 4.88-13.63 4.06-16.84-.49-1.91-2.59-2.83-6.18-3.02-.77-.04-1.55-.05-2.34-.02-.86.02-1.75.08-2.69.17-.5.05-1 .01-1.47-.1-1.71.1-3.47-.02-5.27-.29l6.58-29.09c-48.79 7.68-85.29-28.55-136.86-7.25l3.72 34.3c-2.08.09-4.05.03-5.88-.25z"/></svg>